<mxfile host="app.diagrams.net" agent="Mozilla/5.0 (Macintosh; Intel Mac OS X 10_15_7) AppleWebKit/537.36 (KHTML, like Gecko) Chrome/129.0.0.0 Safari/537.36" version="24.8.3">
  <diagram name="第 1 页" id="yNghgKVV-HXo9ubiQr_b">
    <mxGraphModel dx="1026" dy="577" grid="1" gridSize="10" guides="1" tooltips="1" connect="1" arrows="1" fold="1" page="1" pageScale="1" pageWidth="827" pageHeight="1169" math="0" shadow="0">
      <root>
        <mxCell id="0" />
        <mxCell id="1" parent="0" />
        <mxCell id="udA4VViUeGQFsnBk43un-1" value="Pool" style="swimlane;childLayout=stackLayout;resizeParent=1;resizeParentMax=0;startSize=20;horizontal=0;horizontalStack=1;" vertex="1" parent="1">
          <mxGeometry x="130" y="10" width="797" height="490" as="geometry">
            <mxRectangle x="130" y="10" width="40" height="50" as="alternateBounds" />
          </mxGeometry>
        </mxCell>
        <mxCell id="udA4VViUeGQFsnBk43un-2" value="定时器" style="swimlane;startSize=20;" vertex="1" parent="udA4VViUeGQFsnBk43un-1">
          <mxGeometry x="20" width="200" height="490" as="geometry" />
        </mxCell>
        <mxCell id="udA4VViUeGQFsnBk43un-8" value="" style="edgeStyle=orthogonalEdgeStyle;rounded=0;orthogonalLoop=1;jettySize=auto;html=1;" edge="1" parent="udA4VViUeGQFsnBk43un-2" source="udA4VViUeGQFsnBk43un-5" target="udA4VViUeGQFsnBk43un-7">
          <mxGeometry relative="1" as="geometry" />
        </mxCell>
        <mxCell id="udA4VViUeGQFsnBk43un-5" value="" style="ellipse;whiteSpace=wrap;html=1;aspect=fixed;" vertex="1" parent="udA4VViUeGQFsnBk43un-2">
          <mxGeometry x="75" y="40" width="50" height="50" as="geometry" />
        </mxCell>
        <mxCell id="udA4VViUeGQFsnBk43un-10" value="" style="edgeStyle=orthogonalEdgeStyle;rounded=0;orthogonalLoop=1;jettySize=auto;html=1;" edge="1" parent="udA4VViUeGQFsnBk43un-2" source="udA4VViUeGQFsnBk43un-7" target="udA4VViUeGQFsnBk43un-9">
          <mxGeometry relative="1" as="geometry" />
        </mxCell>
        <mxCell id="udA4VViUeGQFsnBk43un-7" value="读取规则" style="whiteSpace=wrap;html=1;" vertex="1" parent="udA4VViUeGQFsnBk43un-2">
          <mxGeometry x="40" y="140" width="120" height="60" as="geometry" />
        </mxCell>
        <mxCell id="udA4VViUeGQFsnBk43un-9" value="发送执行任务" style="whiteSpace=wrap;html=1;" vertex="1" parent="udA4VViUeGQFsnBk43un-2">
          <mxGeometry x="40" y="280" width="120" height="60" as="geometry" />
        </mxCell>
        <mxCell id="udA4VViUeGQFsnBk43un-25" value="mq" style="swimlane;startSize=20;" vertex="1" parent="udA4VViUeGQFsnBk43un-1">
          <mxGeometry x="220" width="150" height="490" as="geometry" />
        </mxCell>
        <mxCell id="udA4VViUeGQFsnBk43un-26" value="" style="strokeWidth=2;html=1;shape=mxgraph.flowchart.direct_data;whiteSpace=wrap;" vertex="1" parent="udA4VViUeGQFsnBk43un-25">
          <mxGeometry x="14" y="190" width="100" height="60" as="geometry" />
        </mxCell>
        <mxCell id="udA4VViUeGQFsnBk43un-3" value="执行器" style="swimlane;startSize=20;" vertex="1" parent="udA4VViUeGQFsnBk43un-1">
          <mxGeometry x="370" width="287" height="490" as="geometry" />
        </mxCell>
        <mxCell id="udA4VViUeGQFsnBk43un-31" value="" style="edgeStyle=orthogonalEdgeStyle;rounded=0;orthogonalLoop=1;jettySize=auto;html=1;" edge="1" parent="udA4VViUeGQFsnBk43un-3" source="udA4VViUeGQFsnBk43un-28" target="udA4VViUeGQFsnBk43un-30">
          <mxGeometry relative="1" as="geometry" />
        </mxCell>
        <mxCell id="udA4VViUeGQFsnBk43un-28" value="" style="ellipse;whiteSpace=wrap;html=1;aspect=fixed;" vertex="1" parent="udA4VViUeGQFsnBk43un-3">
          <mxGeometry x="118.5" y="30" width="50" height="50" as="geometry" />
        </mxCell>
        <mxCell id="udA4VViUeGQFsnBk43un-30" value="执行任务" style="whiteSpace=wrap;html=1;" vertex="1" parent="udA4VViUeGQFsnBk43un-3">
          <mxGeometry x="83.5" y="155" width="120" height="60" as="geometry" />
        </mxCell>
        <mxCell id="udA4VViUeGQFsnBk43un-4" value="Lane 3" style="swimlane;startSize=20;" vertex="1" parent="udA4VViUeGQFsnBk43un-1">
          <mxGeometry x="657" width="140" height="490" as="geometry" />
        </mxCell>
        <mxCell id="udA4VViUeGQFsnBk43un-27" style="edgeStyle=orthogonalEdgeStyle;rounded=0;orthogonalLoop=1;jettySize=auto;html=1;entryX=0;entryY=0.5;entryDx=0;entryDy=0;entryPerimeter=0;" edge="1" parent="udA4VViUeGQFsnBk43un-1" source="udA4VViUeGQFsnBk43un-9" target="udA4VViUeGQFsnBk43un-26">
          <mxGeometry relative="1" as="geometry" />
        </mxCell>
        <mxCell id="udA4VViUeGQFsnBk43un-29" style="edgeStyle=orthogonalEdgeStyle;rounded=0;orthogonalLoop=1;jettySize=auto;html=1;entryX=1;entryY=0.5;entryDx=0;entryDy=0;entryPerimeter=0;" edge="1" parent="udA4VViUeGQFsnBk43un-1" source="udA4VViUeGQFsnBk43un-28" target="udA4VViUeGQFsnBk43un-26">
          <mxGeometry relative="1" as="geometry" />
        </mxCell>
      </root>
    </mxGraphModel>
  </diagram>
</mxfile>
